REM DIRINDEX 1\2,1\3,1\4,1\5\6,1\5\7,1\8
REM DIRNAME folder01,folder02,folder03,folder04,folder05,folder06,folder07,folder08
TITLE ""
FILE "019 Åy019ÅzUnit1 (DATA FILE_í∑ï∂ñ‚ëËÇ…èoåªÇ∑ÇÈêÍñÂópåÍ1).mp3" MP3
  TRACK 01 AUDIO
    TITLE "0:"
    INDEX 01 00:00:00
  TRACK 02 AUDIO
    TITLE "8:cjc115_0650"
    INDEX 01 00:00:01
  TRACK 03 AUDIO
    TITLE "0:"
    INDEX 01 00:01:26
  TRACK 04 AUDIO
    TITLE "6:cjc115_0651"
    INDEX 01 00:01:71
  TRACK 05 AUDIO
    TITLE "0:"
    INDEX 01 00:03:08
  TRACK 06 AUDIO
    TITLE "7:cjc115_0652"
    INDEX 01 00:03:15
  TRACK 07 AUDIO
    TITLE "0:"
    INDEX 01 00:04:60
  TRACK 08 AUDIO
    TITLE "6:cjc115_0653"
    INDEX 01 00:05:67
  TRACK 09 AUDIO
    TITLE "0:"
    INDEX 01 00:07:11
  TRACK 10 AUDIO
    TITLE "7:cjc115_0654"
    INDEX 01 00:07:19
  TRACK 11 AUDIO
    TITLE "0:"
    INDEX 01 00:09:04
  TRACK 12 AUDIO
    TITLE "6:cjc115_0655"
    INDEX 01 00:10:12
  TRACK 13 AUDIO
    TITLE "0:"
    INDEX 01 00:11:25
  TRACK 14 AUDIO
    TITLE "7:cjc115_0656"
    INDEX 01 00:11:35
  TRACK 15 AUDIO
    TITLE "0:"
    INDEX 01 00:12:61
  TRACK 16 AUDIO
    TITLE "6:cjc115_0657"
    INDEX 01 00:13:67
  TRACK 17 AUDIO
    TITLE "0:"
    INDEX 01 00:14:62
  TRACK 18 AUDIO
    TITLE "7:cjc115_0658"
    INDEX 01 00:14:68
  TRACK 19 AUDIO
    TITLE "0:"
    INDEX 01 00:16:18
  TRACK 20 AUDIO
    TITLE "6:cjc115_0659"
    INDEX 01 00:17:25
  TRACK 21 AUDIO
    TITLE "0:"
    INDEX 01 00:18:44
  TRACK 22 AUDIO
    TITLE "7:cjc115_0660"
    INDEX 01 00:18:52
  TRACK 23 AUDIO
    TITLE "0:"
    INDEX 01 00:19:73
  TRACK 24 AUDIO
    TITLE "6:cjc115_0661"
    INDEX 01 00:21:06
  TRACK 25 AUDIO
    TITLE "0:"
    INDEX 01 00:22:38
  TRACK 26 AUDIO
    TITLE "7:cjc115_0662"
    INDEX 01 00:22:48
  TRACK 27 AUDIO
    TITLE "0:"
    INDEX 01 00:23:71
  TRACK 28 AUDIO
    TITLE "6:cjc115_0663"
    INDEX 01 00:25:05
  TRACK 29 AUDIO
    TITLE "0:"
    INDEX 01 00:26:50
  TRACK 30 AUDIO
    TITLE "7:cjc115_0664"
    INDEX 01 00:26:62
  TRACK 31 AUDIO
    TITLE "0:"
    INDEX 01 00:27:61
  TRACK 32 AUDIO
    TITLE "6:cjc115_0665"
    INDEX 01 00:28:70
  TRACK 33 AUDIO
    TITLE "0:"
    INDEX 01 00:30:01
  TRACK 34 AUDIO
    TITLE "7:cjc115_0666"
    INDEX 01 00:30:12
  TRACK 35 AUDIO
    TITLE "0:"
    INDEX 01 00:31:31
  TRACK 36 AUDIO
    TITLE "6:cjc115_0667"
    INDEX 01 00:32:37
  TRACK 37 AUDIO
    TITLE "0:"
    INDEX 01 00:33:58
  TRACK 38 AUDIO
    TITLE "7:cjc115_0668"
    INDEX 01 00:33:66
  TRACK 39 AUDIO
    TITLE "0:"
    INDEX 01 00:35:02
  TRACK 40 AUDIO
    TITLE "6:cjc115_0669"
    INDEX 01 00:36:11
  TRACK 41 AUDIO
    TITLE "0:"
    INDEX 01 00:37:32
  TRACK 42 AUDIO
    TITLE "7:cjc115_0670"
    INDEX 01 00:37:40
  TRACK 43 AUDIO
    TITLE "0:"
    INDEX 01 00:38:37
  TRACK 44 AUDIO
    TITLE "6:cjc115_0671"
    INDEX 01 00:39:47
  TRACK 45 AUDIO
    TITLE "0:"
    INDEX 01 00:40:68
  TRACK 46 AUDIO
    TITLE "7:cjc115_0672"
    INDEX 01 00:41:02
  TRACK 47 AUDIO
    TITLE "0:"
    INDEX 01 00:42:14
  TRACK 48 AUDIO
    TITLE "6:cjc115_0673"
    INDEX 01 00:43:25
  TRACK 49 AUDIO
    TITLE "0:"
    INDEX 01 00:44:38
  TRACK 50 AUDIO
    TITLE "7:cjc115_0674"
    INDEX 01 00:44:46
  TRACK 51 AUDIO
    TITLE "0:"
    INDEX 01 00:45:59
  TRACK 52 AUDIO
    TITLE "6:cjc115_0675"
    INDEX 01 00:46:66
  TRACK 53 AUDIO
    TITLE "0:"
    INDEX 01 00:48:02
  TRACK 54 AUDIO
    TITLE "7:cjc115_0676"
    INDEX 01 00:48:10
  TRACK 55 AUDIO
    TITLE "0:"
    INDEX 01 00:49:14
  TRACK 56 AUDIO
    TITLE "6:cjc115_0677"
    INDEX 01 00:50:23
  TRACK 57 AUDIO
    TITLE "0:"
    INDEX 01 00:51:24
  TRACK 58 AUDIO
    TITLE "7:cjc115_0678"
    INDEX 01 00:51:40
  TRACK 59 AUDIO
    TITLE "0:"
    INDEX 01 00:52:32
  TRACK 60 AUDIO
    TITLE "6:cjc115_0679"
    INDEX 01 00:53:39
  TRACK 61 AUDIO
    TITLE "0:"
    INDEX 01 00:54:68
  TRACK 62 AUDIO
    TITLE "7:cjc115_0680"
    INDEX 01 00:55:03
  TRACK 63 AUDIO
    TITLE "0:"
    INDEX 01 00:56:25
  TRACK 64 AUDIO
    TITLE "6:cjc115_0681"
    INDEX 01 00:57:31
  TRACK 65 AUDIO
    TITLE "0:"
    INDEX 01 00:58:38
  TRACK 66 AUDIO
    TITLE "7:cjc115_0682"
    INDEX 01 00:58:48
  TRACK 67 AUDIO
    TITLE "0:"
    INDEX 01 00:59:65
  TRACK 68 AUDIO
    TITLE "6:cjc115_0683"
    INDEX 01 01:00:74
  TRACK 69 AUDIO
    TITLE "0:"
    INDEX 01 01:02:05
  TRACK 70 AUDIO
    TITLE "7:cjc115_0684"
    INDEX 01 01:02:12
  TRACK 71 AUDIO
    TITLE "0:"
    INDEX 01 01:03:31
  TRACK 72 AUDIO
    TITLE "6:cjc115_0685"
    INDEX 01 01:04:39
  TRACK 73 AUDIO
    TITLE "0:"
    INDEX 01 01:05:50
  TRACK 74 AUDIO
    TITLE "7:cjc115_0686"
    INDEX 01 01:05:60
  TRACK 75 AUDIO
    TITLE "0:"
    INDEX 01 01:08:01
  TRACK 76 AUDIO
    TITLE "6:cjc115_0687"
    INDEX 01 01:09:09
  TRACK 77 AUDIO
    TITLE "0:"
    INDEX 01 01:10:14
  TRACK 78 AUDIO
    TITLE "7:cjc115_0688"
    INDEX 01 01:10:20
  TRACK 79 AUDIO
    TITLE "0:"
    INDEX 01 01:12:34
  TRACK 80 AUDIO
    TITLE "6:cjc115_0689"
    INDEX 01 01:13:42
  TRACK 81 AUDIO
    TITLE "0:"
    INDEX 01 01:14:49
  TRACK 82 AUDIO
    TITLE "7:cjc115_0690"
    INDEX 01 01:14:61
  TRACK 83 AUDIO
    TITLE "0:"
    INDEX 01 01:15:68
  TRACK 84 AUDIO
    TITLE "6:cjc115_0691"
    INDEX 01 01:17:00
  TRACK 85 AUDIO
    TITLE "0:"
    INDEX 01 01:18:19
  TRACK 86 AUDIO
    TITLE "7:cjc115_0692"
    INDEX 01 01:18:27
  TRACK 87 AUDIO
    TITLE "0:"
    INDEX 01 01:20:28
  TRACK 88 AUDIO
    TITLE "6:cjc115_0693"
    INDEX 01 01:21:39
  TRACK 89 AUDIO
    TITLE "0:"
    INDEX 01 01:22:56
  TRACK 90 AUDIO
    TITLE "7:cjc115_0694"
    INDEX 01 01:22:66
  TRACK 91 AUDIO
    TITLE "0:"
    INDEX 01 01:25:58
  TRACK 92 AUDIO
    TITLE "6:cjc115_0695"
    INDEX 01 01:26:66
  TRACK 93 AUDIO
    TITLE "0:"
    INDEX 01 01:28:08
  TRACK 94 AUDIO
    TITLE "7:cjc115_0696"
    INDEX 01 01:28:16
  TRACK 95 AUDIO
    TITLE "0:"
    INDEX 01 01:30:07
  TRACK 96 AUDIO
    TITLE "6:cjc115_0697"
    INDEX 01 01:31:18
  TRACK 97 AUDIO
    TITLE "0:"
    INDEX 01 01:32:31
  TRACK 98 AUDIO
    TITLE "7:cjc115_0698"
    INDEX 01 01:32:41
  TRACK 99 AUDIO
    TITLE "0:"
    INDEX 01 01:34:65
  TRACK 100 AUDIO
    TITLE "6:cjc115_0699"
    INDEX 01 01:36:00
  TRACK 101 AUDIO
    TITLE "0:"
    INDEX 01 01:37:34
  TRACK 102 AUDIO
    TITLE "7:cjc115_0700"
    INDEX 01 01:37:46
  TRACK 103 AUDIO
    TITLE "0:"
    INDEX 01 01:38:53
  TRACK 104 AUDIO
    TITLE "6:cjc115_0701"
    INDEX 01 01:39:63
  TRACK 105 AUDIO
    TITLE "0:"
    INDEX 01 01:41:46
  TRACK 106 AUDIO
    TITLE "7:cjc115_0702"
    INDEX 01 01:41:56
  TRACK 107 AUDIO
    TITLE "0:"
    INDEX 01 01:43:09
  TRACK 108 AUDIO
    TITLE "6:cjc115_0703"
    INDEX 01 01:44:21
  TRACK 109 AUDIO
    TITLE "0:"
    INDEX 01 01:45:63
  TRACK 110 AUDIO
    TITLE "7:cjc115_0704"
    INDEX 01 01:45:71
  TRACK 111 AUDIO
    TITLE "0:"
    INDEX 01 01:47:35
  TRACK 112 AUDIO
    TITLE "6:cjc115_0705"
    INDEX 01 01:48:46
  TRACK 113 AUDIO
    TITLE "0:"
    INDEX 01 01:50:15
  TRACK 114 AUDIO
    TITLE "7:cjc115_0706"
    INDEX 01 01:50:23
  TRACK 115 AUDIO
    TITLE "0:"
    INDEX 01 01:51:70
  TRACK 116 AUDIO
    TITLE "6:cjc115_0707"
    INDEX 01 01:53:06
  TRACK 117 AUDIO
    TITLE "0:"
    INDEX 01 01:54:07
  TRACK 118 AUDIO
    TITLE "7:cjc115_0708"
    INDEX 01 01:54:15
  TRACK 119 AUDIO
    TITLE "0:"
    INDEX 01 01:55:34
  TRACK 120 AUDIO
    TITLE "6:cjc115_0709"
    INDEX 01 01:56:36
  TRACK 121 AUDIO
    TITLE "0:"
    INDEX 01 01:57:49
  TRACK 122 AUDIO
    TITLE "7:cjc115_0710"
    INDEX 01 01:57:58
  TRACK 123 AUDIO
    TITLE "0:"
    INDEX 01 02:00:08
  TRACK 124 AUDIO
    TITLE "6:cjc115_0711"
    INDEX 01 02:01:15
  TRACK 125 AUDIO
    TITLE "0:"
    INDEX 01 02:02:22
  TRACK 126 AUDIO
    TITLE "7:cjc115_0712"
    INDEX 01 02:02:32
  TRACK 127 AUDIO
    TITLE "0:"
    INDEX 01 02:03:55
  TRACK 128 AUDIO
    TITLE "6:cjc115_0713"
    INDEX 01 02:04:62
  TRACK 129 AUDIO
    TITLE "0:"
    INDEX 01 02:05:74
  TRACK 130 AUDIO
    TITLE "7:cjc115_0714"
    INDEX 01 02:06:10
  TRACK 131 AUDIO
    TITLE "0:"
    INDEX 01 02:07:02
  TRACK 132 AUDIO
    TITLE "6:cjc115_0715"
    INDEX 01 02:08:13
  TRACK 133 AUDIO
    TITLE "0:"
    INDEX 01 02:09:32
  TRACK 134 AUDIO
    TITLE "7:cjc115_0716"
    INDEX 01 02:09:40
  TRACK 135 AUDIO
    TITLE "0:"
    INDEX 01 02:10:49
  TRACK 136 AUDIO
    TITLE "6:cjc115_0717"
    INDEX 01 02:11:57
  TRACK 137 AUDIO
    TITLE "0:"
    INDEX 01 02:12:62
  TRACK 138 AUDIO
    TITLE "7:cjc115_0718"
    INDEX 01 02:13:05
  TRACK 139 AUDIO
    TITLE "0:"
    INDEX 01 02:14:20
  TRACK 140 AUDIO
    TITLE "6:cjc115_0719"
    INDEX 01 02:15:27
  TRACK 141 AUDIO
    TITLE "0:"
    INDEX 01 02:16:73
  TRACK 142 AUDIO
    TITLE "7:cjc115_0720"
    INDEX 01 02:17:06
  TRACK 143 AUDIO
    TITLE "0:"
    INDEX 01 02:18:49
  TRACK 144 AUDIO
    TITLE "6:cjc115_0721"
    INDEX 01 02:19:60
  TRACK 145 AUDIO
    TITLE "0:"
    INDEX 01 02:21:53
  TRACK 146 AUDIO
    TITLE "7:cjc115_0722"
    INDEX 01 02:21:61
  TRACK 147 AUDIO
    TITLE "0:"
    INDEX 01 02:23:58
  TRACK 148 AUDIO
    TITLE "6:cjc115_0723"
    INDEX 01 02:24:67
  TRACK 149 AUDIO
    TITLE "0:"
    INDEX 01 02:26:50
  TRACK 150 AUDIO
    TITLE "7:cjc115_0724"
    INDEX 01 02:26:60
  TRACK 151 AUDIO
    TITLE "0:"
    INDEX 01 02:28:06
  TRACK 152 AUDIO
    TITLE "6:cjc115_0725"
    INDEX 01 02:29:15
  TRACK 153 AUDIO
    TITLE "0:"
    INDEX 01 02:30:29
  TRACK 154 AUDIO
    TITLE "7:cjc115_0726"
    INDEX 01 02:30:40
  TRACK 155 AUDIO
    TITLE "0:"
    INDEX 01 02:32:71
  TRACK 156 AUDIO
    TITLE "6:cjc115_0727"
    INDEX 01 02:34:03
  TRACK 157 AUDIO
    TITLE "0:"
    INDEX 01 02:35:43
  TRACK 158 AUDIO
    TITLE "7:cjc115_0728"
    INDEX 01 02:35:53
  TRACK 159 AUDIO
    TITLE "0:"
    INDEX 01 02:37:11
  TRACK 160 AUDIO
    TITLE "6:cjc115_0729"
    INDEX 01 02:38:18
  TRACK 161 AUDIO
    TITLE "0:"
    INDEX 01 02:39:26
  TRACK 162 AUDIO
    TITLE "7:cjc115_0730"
    INDEX 01 02:39:33
  TRACK 163 AUDIO
    TITLE "0:"
    INDEX 01 02:40:41
  TRACK 164 AUDIO
    TITLE "6:cjc115_0731"
    INDEX 01 02:41:46
  TRACK 165 AUDIO
    TITLE "0:"
    INDEX 01 02:42:61
  TRACK 166 AUDIO
    TITLE "7:cjc115_0732"
    INDEX 01 02:42:69
  TRACK 167 AUDIO
    TITLE "0:"
    INDEX 01 02:44:17
  TRACK 168 AUDIO
    TITLE "6:cjc115_0733"
    INDEX 01 02:45:22
  TRACK 169 AUDIO
    TITLE "0:"
    INDEX 01 02:46:59
  TRACK 170 AUDIO
    TITLE "7:cjc115_0734"
    INDEX 01 02:46:67
  TRACK 171 AUDIO
    TITLE "0:"
    INDEX 01 02:48:19
  TRACK 172 AUDIO
    TITLE "6:cjc115_0735"
    INDEX 01 02:49:30
  TRACK 173 AUDIO
    TITLE "0:"
    INDEX 01 02:50:53
  TRACK 174 AUDIO
    TITLE "7:cjc115_0736"
    INDEX 01 02:50:63
  TRACK 175 AUDIO
    TITLE "0:"
    INDEX 01 02:52:24
  TRACK 176 AUDIO
    TITLE "6:cjc115_0737"
    INDEX 01 02:53:35
  TRACK 177 AUDIO
    TITLE "0:"
    INDEX 01 02:55:05
  TRACK 178 AUDIO
    TITLE "7:cjc115_0738"
    INDEX 01 02:55:17
  TRACK 179 AUDIO
    TITLE "0:"
    INDEX 01 02:56:55
  TRACK 180 AUDIO
    TITLE "6:cjc115_0739"
    INDEX 01 02:57:65
  TRACK 181 AUDIO
    TITLE "0:"
    INDEX 01 02:58:74
  TRACK 182 AUDIO
    TITLE "7:cjc115_0740"
    INDEX 01 02:59:11
  TRACK 183 AUDIO
    TITLE "0:"
    INDEX 01 03:01:43
  TRACK 184 AUDIO
    TITLE "6:cjc115_0741"
    INDEX 01 03:02:54
  TRACK 185 AUDIO
    TITLE "0:"
    INDEX 01 03:04:02
  TRACK 186 AUDIO
    TITLE "7:cjc115_0742"
    INDEX 01 03:04:10
  TRACK 187 AUDIO
    TITLE "0:"
    INDEX 01 03:05:35
  TRACK 188 AUDIO
    TITLE "6:cjc115_0743"
    INDEX 01 03:06:44
  TRACK 189 AUDIO
    TITLE "0:"
    INDEX 01 03:07:65
  TRACK 190 AUDIO
    TITLE "7:cjc115_0744"
    INDEX 01 03:08:02
  TRACK 191 AUDIO
    TITLE "0:"
    INDEX 01 03:09:29
  TRACK 192 AUDIO
    TITLE "6:cjc115_0745"
    INDEX 01 03:10:30
  TRACK 193 AUDIO
    TITLE "0:"
    INDEX 01 03:11:61
  TRACK 194 AUDIO
    TITLE "7:cjc115_0746"
    INDEX 01 03:11:71
  TRACK 195 AUDIO
    TITLE "0:"
    INDEX 01 03:13:44
  TRACK 196 AUDIO
    TITLE "6:cjc115_0747"
    INDEX 01 03:14:53
  TRACK 197 AUDIO
    TITLE "0:"
    INDEX 01 03:16:31
  TRACK 198 AUDIO
    TITLE "7:cjc115_0748"
    INDEX 01 03:16:36
  TRACK 199 AUDIO
    TITLE "0:"
    INDEX 01 03:18:04
  TRACK 200 AUDIO
    TITLE "6:cjc115_0749"
    INDEX 01 03:19:15
  TRACK 201 AUDIO
    TITLE "0:"
    INDEX 01 03:20:23
  TRACK 202 AUDIO
    TITLE "7:cjc115_0750"
    INDEX 01 03:20:34
  TRACK 203 AUDIO
    TITLE "0:"
    INDEX 01 03:23:17
  TRACK 204 AUDIO
    TITLE "6:cjc115_0751"
    INDEX 01 03:24:24
  TRACK 205 AUDIO
    TITLE "0:"
    INDEX 01 03:25:59
  TRACK 206 AUDIO
    TITLE "7:cjc115_0752"
    INDEX 01 03:25:67
  TRACK 207 AUDIO
    TITLE "0:"
    INDEX 01 03:28:16
  TRACK 208 AUDIO
    TITLE "6:cjc115_0753"
    INDEX 01 03:29:25
  TRACK 209 AUDIO
    TITLE "0:"
    INDEX 01 03:30:62
  TRACK 210 AUDIO
    TITLE "7:cjc115_0754"
    INDEX 01 03:30:68
  TRACK 211 AUDIO
    TITLE "0:"
    INDEX 01 03:32:20
  TRACK 212 AUDIO
    TITLE "6:cjc115_0755"
    INDEX 01 03:33:29
  TRACK 213 AUDIO
    TITLE "0:"
    INDEX 01 03:34:74
  TRACK 214 AUDIO
    TITLE "7:cjc115_0756"
    INDEX 01 03:35:06
  TRACK 215 AUDIO
    TITLE "0:"
    INDEX 01 03:36:59
  TRACK 216 AUDIO
    TITLE "6:cjc115_0757"
    INDEX 01 03:37:70
  TRACK 217 AUDIO
    TITLE "0:"
    INDEX 01 03:39:28
  TRACK 218 AUDIO
    TITLE "7:cjc115_0758"
    INDEX 01 03:39:38
  TRACK 219 AUDIO
    TITLE "0:"
    INDEX 01 03:40:55
  TRACK 220 AUDIO
    TITLE "6:cjc115_0759"
    INDEX 01 03:41:66
  TRACK 221 AUDIO
    TITLE "0:"
    INDEX 01 03:43:31
  TRACK 222 AUDIO
    TITLE "7:cjc115_0760"
    INDEX 01 03:43:37
  TRACK 223 AUDIO
    TITLE "0:"
    INDEX 01 03:44:64
  TRACK 224 AUDIO
    TITLE "6:cjc115_0761"
    INDEX 01 03:45:71
  TRACK 225 AUDIO
    TITLE "0:"
    INDEX 01 03:47:63
  TRACK 226 AUDIO
    TITLE "7:cjc115_0762"
    INDEX 01 03:47:70
  TRACK 227 AUDIO
    TITLE "0:"
    INDEX 01 03:50:53
  TRACK 228 AUDIO
    TITLE "6:cjc115_0763"
    INDEX 01 03:51:64
  TRACK 229 AUDIO
    TITLE "0:"
    INDEX 01 03:53:22
  TRACK 230 AUDIO
    TITLE "7:cjc115_0764"
    INDEX 01 03:53:32
  TRACK 231 AUDIO
    TITLE "0:"
    INDEX 01 03:56:07
